<svg version="1.1" xmlns="http://www.w3.org/2000/svg" xmlns:xlink="http://www.w3.org/1999/xlink" width="480.00465" height="365.32663" viewBox="0,0,480.00465,365.32663"><defs><linearGradient x1="231.74174" y1="183.75377" x2="480.17417" y2="183.75377" gradientUnits="userSpaceOnUse" id="color-1"><stop offset="0" stop-color="#ffffff"/><stop offset="1" stop-color="#ffffff" stop-opacity="0"/></linearGradient><radialGradient cx="240" cy="180.00002" r="55" gradientUnits="userSpaceOnUse" id="color-2"><stop offset="0" stop-color="#ffffff"/><stop offset="1" stop-color="#ffffff" stop-opacity="0"/></radialGradient><linearGradient x1="239.54542" y1="173.99061" x2="263.86082" y2="363.15818" gradientUnits="userSpaceOnUse" id="color-3"><stop offset="0" stop-color="#ffffff"/><stop offset="1" stop-color="#ffffff" stop-opacity="0"/></linearGradient><linearGradient x1="241.07254" y1="187.7695" x2="237.41964" y2="-1.50436" gradientUnits="userSpaceOnUse" id="color-4"><stop offset="0" stop-color="#ffffff"/><stop offset="1" stop-color="#ffffff" stop-opacity="0"/></linearGradient><linearGradient x1="243.59315" y1="179.54064" x2="0.48858" y2="199.94889" gradientUnits="userSpaceOnUse" id="color-5"><stop offset="0" stop-color="#ffffff"/><stop offset="1" stop-color="#ffffff" stop-opacity="0"/></linearGradient></defs><g transform="translate(-0.16953,1.55648)"><g data-paper-data="{&quot;isPaintingLayer&quot;:true}" fill-rule="nonzero" stroke="none" stroke-width="0" stroke-linecap="butt" stroke-linejoin="miter" stroke-miterlimit="10" stroke-dasharray="" stroke-dashoffset="0" style="mix-blend-mode: normal"><path d="M232.45976,189.75978l-0.71801,-13.51351l248.43243,-12.01201v39.03904z" fill="url(#color-1)"/><g><path d="M185,180.00002c0,-30.37566 24.62434,-55 55,-55c30.37567,0 55,24.62434 55,55c0,30.37567 -24.62433,55 -55,55c-30.37566,0 -55,-24.62433 -55,-55z" fill="url(#color-2)"/><path d="M215,180.00002c0,-13.80712 11.19288,-25 25,-25c13.80712,0 25,11.19288 25,25c0,13.80712 -11.19288,25 -25,25c-13.80712,0 -25,-11.19288 -25,-25z" fill="#ffffff"/></g><path d="M234.90357,174.72563l10.532,-0.9704l33.73965,188.79098l-30.6288,1.22394z" fill="url(#color-3)"/><path d="M249.37788,187.20642l-18.70021,0.58312l-20.28468,-189.24178l54.05333,-0.10425z" fill="url(#color-4)"/><path d="M242.79236,175.90774l0.9235,8.24776l-242.90823,27.79203l-0.6381,-23.99726z" fill="url(#color-5)"/></g></g></svg>