<svg version="1.1" xmlns="http://www.w3.org/2000/svg" xmlns:xlink="http://www.w3.org/1999/xlink" width="92.52114" height="32.6" viewBox="0,0,92.52114,32.6"><defs><linearGradient x1="193.45375" y1="181.12807" x2="286.54625" y2="177.37193" gradientUnits="userSpaceOnUse" id="color-1"><stop offset="0" stop-color="#66ff8d"/><stop offset="1" stop-color="#65ffed"/></linearGradient></defs><g transform="translate(-193.82875,-160.76875)"><g data-paper-data="{&quot;isPaintingLayer&quot;:true}" fill-rule="nonzero" stroke-linecap="butt" stroke-linejoin="miter" stroke-miterlimit="10" stroke-dasharray="" stroke-dashoffset="0" style="mix-blend-mode: normal"><text transform="translate(205.1,188.36875) scale(0.5,0.5)" font-size="40" xml:space="preserve" fill="#767676" fill-rule="nonzero" stroke="#000000" stroke-width="0" stroke-linecap="butt" stroke-linejoin="miter" stroke-miterlimit="10" stroke-dasharray="" stroke-dashoffset="0" font-family="Pixel" font-weight="normal" text-anchor="start" style="mix-blend-mode: normal"><tspan x="0" dy="0">by Luk!</tspan></text><text transform="translate(202.5,185.76875) scale(0.5,0.5)" font-size="40" xml:space="preserve" fill="#ffffff" fill-rule="nonzero" stroke="#000000" stroke-width="0" stroke-linecap="butt" stroke-linejoin="miter" stroke-miterlimit="10" stroke-dasharray="" stroke-dashoffset="0" font-family="Pixel" font-weight="normal" text-anchor="start" style="mix-blend-mode: normal"><tspan x="0" dy="0">by Luk!</tspan></text><path d="M285.9222,171.64956c0.9188,0.84753 0.07127,1.76633 0.07127,1.76633l-0.48867,0.51123c-2.45141,3.55892 -4.48429,7.81504 -7.72558,10.58375l0.28533,0.3501l-1.44364,1.17658c-0.20393,0.16992 -0.46338,0.27648 -0.7491,0.28801c-0.68979,0.02783 -1.27155,-0.50879 -1.29938,-1.19859c-0.00161,-0.03989 -0.00133,-0.07942 0.00075,-0.1185l0.0638,-1.48922l0.01551,0.00066l-0.01214,-0.05333c0.30346,-2.37271 0.88206,-4.61986 1.37259,-6.95534c0.10636,-0.50637 0.14091,-1.02893 0.22861,-1.53863c-1.04561,1.16112 -2.86929,2.63265 -3.10988,2.89525c-2.64192,2.88352 -4.45471,6.09099 -7.16034,8.57904l0.31822,0.36645l-1.80548,1.56784c-0.20788,0.18367 -0.47793,0.29965 -0.77671,0.3117c-0.68979,0.02783 -1.27155,-0.50879 -1.29938,-1.19859c-0.00254,-0.06302 -0.00037,-0.12513 0.00619,-0.186l0.17231,-1.86307l0.0158,0.00146l-0.00916,-0.05882c0.54984,-2.95855 1.11357,-5.91518 1.65392,-8.87519c0.14348,-0.78595 0.25725,-1.5771 0.39878,-2.36341c0.09368,-0.52046 0.20644,-1.03731 0.30677,-1.55652c0.03162,-0.16363 0.1983,-0.61784 0.08907,-0.49197c-1.52412,1.75629 -3.26493,3.40554 -4.93578,5.13181c-2.39815,2.49132 -5.01892,6.18538 -8.038,7.91076c-1.06929,0.61109 -2.22505,1.65041 -3.42688,1.38127c-0.81398,-0.18228 -0.67001,-1.53593 -0.87468,-2.34457c-0.61753,-2.43981 -0.44241,-5.53736 -0.57912,-8.06055c-0.03199,-0.59035 -0.07806,-1.18262 -0.04697,-1.77302c0.01194,-0.2267 0.13525,-0.75013 0.18623,-0.9574c-0.95976,3.73074 -3.79791,7.71289 -6.77872,10.77652l0.17612,0.14199l-1.56464,1.94078c-0.21834,0.27375 -0.54985,0.45473 -0.92718,0.46995c-0.65887,0.02658 -1.21917,-0.46181 -1.29234,-1.10677l-0.18392,-1.48201l0.01556,-0.00193l-0.02089,-0.04975c-0.07755,-1.94036 -0.27535,-3.89412 -0.48339,-5.82609c-0.17731,-1.58177 -0.68969,-3.51392 -0.72875,-5.15077c-0.63009,0.73824 -1.40968,1.38434 -2.03957,2.12086c-2.55254,2.98464 -5.21461,5.92853 -7.50639,9.125c-0.84842,1.18334 -2.10108,4.08693 -4.20046,3.5665c-0.98527,-0.24424 -0.91482,-1.83923 -1.11197,-2.83499c-0.44698,-2.25753 -0.43464,-6.36986 0.22184,-9.2458c-2.01153,2.23612 -4.12506,4.37505 -6.12664,6.62245c-1.75735,1.97318 -2.80919,3.57754 -4.60035,4.76227l0.21081,0.32123l-1.20157,0.78851c-0.18672,0.12723 -0.4102,0.20541 -0.65259,0.21519c-0.68979,0.02783 -1.27155,-0.50879 -1.29938,-1.19859c-0.00315,-0.07806 0.00093,-0.15474 0.01164,-0.22938l0.18639,-1.48549l0.02217,0.00278l-0.01047,-0.07759c0.53784,-2.15091 1.17359,-4.29032 1.67689,-6.4479c0.17457,-0.74837 0.32177,-1.50334 0.45055,-2.26093c0.05592,-0.32893 0.24739,-1.31058 0.16509,-0.98724c-0.45452,1.78582 -2.22244,3.51984 -3.26825,5.01746c-3.04652,4.3627 -5.75905,8.77733 -10.92545,10.75398c0,0 -1.16895,0.44277 -1.61173,-0.72618c-0.44277,-1.16895 0.72618,-1.61173 0.72618,-1.61173c5.19698,-1.94547 7.88585,-7.21492 10.95062,-11.52979c0.74814,-1.0533 2.68637,-4.4342 4.10126,-4.4036c4.07999,0.08824 1.82004,6.33421 1.35838,8.07269c-0.12134,0.45693 -0.31341,1.20778 -0.51287,1.99418c0.26731,-0.26354 0.51964,-0.50774 0.70669,-0.72514c2.71916,-3.1603 5.65879,-6.11061 8.40834,-9.24053l1.27786,-1.51973c0.21835,-0.26159 0.54221,-0.43345 0.90949,-0.44827c0.67228,-0.02713 1.24193,0.4819 1.29619,1.14634l0.21887,2.48325l-0.24663,0.02174c0.22793,1.51532 0.26303,2.97001 0.21024,4.87838c-0.03126,1.13009 0.04552,2.2725 -0.00428,3.40122c1.064,-1.60688 2.92535,-3.46932 3.40223,-4.06496c2.32235,-2.90072 4.90902,-6.97811 7.82532,-9.27012c0.68141,-0.53554 1.54505,-1.69261 2.28475,-1.24099c1.72209,1.05142 1.69947,7.24939 1.91064,9.13309c0.14793,1.38331 0.29177,2.77703 0.39157,4.16938c1.25499,-3.07492 3.97802,-6.63415 5.80903,-8.71296c0.80594,-0.91502 1.39909,-2.64111 2.61555,-2.55736c2.70053,0.18593 2.30671,7.21767 2.39091,8.84081c0.04065,0.78369 0.03998,1.56948 0.09439,2.35233c0.03273,0.47089 0.18485,0.941 0.21028,1.40929c0.62439,-0.72782 1.50173,-1.31754 2.11784,-1.89578c2.05886,-1.93231 3.96808,-4.05515 5.92572,-6.08885c1.4409,-1.48653 2.94273,-3.22493 4.66948,-4.39728c0.79009,-0.53642 1.52842,-1.67077 2.46126,-1.46632c2.70918,0.59379 1.89257,3.37894 1.67724,4.9055c-0.40291,2.85632 -0.97482,5.70168 -1.53321,8.54045c1.89137,-3.29144 5.13154,-6.52713 7.50687,-8.7637c0.65007,-0.6121 3.74275,-3.48435 4.87395,-2.94928c0.95823,0.45326 0.83438,1.98584 0.92762,3.04175c0.17081,1.93447 -0.51862,4.15822 -1.10006,6.28662c0.43593,-0.56679 0.89704,-1.1112 1.26256,-1.64385c1.48598,-2.16542 2.90262,-4.37758 4.39278,-6.54097l0.70992,-0.78815c0,0 0.84753,-0.9188 1.76633,-0.07127z" fill="url(#color-1)" stroke="none" stroke-width="0.5"/></g></g></svg>